<?xml version="1.0" encoding="UTF-8" standalone="no"?><!DOCTYPE svg PUBLIC "-//W3C//DTD SVG 1.1//EN" "http://www.w3.org/Graphics/SVG/1.1/DTD/svg11.dtd"><svg width="100%" height="100%" viewBox="0 0 1968 2180" version="1.1" xmlns="http://www.w3.org/2000/svg" xmlns:xlink="http://www.w3.org/1999/xlink" xml:space="preserve" xmlns:serif="http://www.serif.com/" style="fill-rule:evenodd;clip-rule:evenodd;stroke-linejoin:round;stroke-miterlimit:2;"><g><path d="M907.917,6.119c-275,35 -459.584,160.834 -531.667,362.084c-23.333,65.416 -31.25,111.25 -33.75,191.666c-3.333,101.25 9.583,172.5 45,251.25c37.917,85 117.083,163.334 220.417,218.75c83.333,45 179.166,76.667 387.5,128.334c192.083,47.5 251.25,67.5 303.75,103.333c77.5,52.917 99.166,135 57.916,221.25c-45.416,94.583 -191.25,156.667 -332.5,142.083c-130.416,-13.75 -222.916,-70.416 -264.166,-162.5c-12.5,-27.5 -23.334,-72.916 -23.334,-97.5l0,-15.416l-425.833,-0l2.917,38.333c10.833,152.083 52.5,268.75 132.5,371.25c110,140.833 295.416,231.667 517.5,253.333c62.5,6.25 205.416,2.5 262.5,-6.666c167.5,-26.25 300,-85 397.916,-175.834c70.417,-65.416 120.417,-144.166 149.167,-234.583c18.333,-57.5 26.25,-105.833 28.75,-179.167c6.667,-185.833 -55.417,-331.25 -183.75,-430.833c-108.75,-84.583 -223.333,-129.583 -514.583,-202.5c-155.417,-38.75 -212.084,-58.333 -265,-92.083c-55.834,-35 -79.167,-76.667 -76.25,-135.417c4.166,-79.583 60.833,-136.667 164.166,-165c27.5,-7.5 44.584,-9.167 105.834,-9.167c82.5,-0.416 111.25,5.417 170.833,33.75c72.083,34.584 124.583,113.75 125,187.5l0,22.084l417.917,-0l-2.5,-49.167c-9.584,-187.083 -85.834,-340 -219.167,-440.833c-42.083,-31.667 -128.333,-75.417 -183.333,-93.334c-47.084,-15.416 -124.584,-31.25 -180.417,-37.083c-55,-6.25 -199.583,-5 -253.333,2.083Z" style="fill:#fff;fill-rule:nonzero;"/><path d="M362.083,158.203c-90.416,25.416 -164.583,46.25 -165.416,46.666c-0.417,0.834 25.833,98.334 58.333,217.5l59.167,216.25l2.5,-77.083c4.583,-135 32.5,-229.167 96.666,-324.583c20.834,-30.834 78.334,-92.084 107.084,-113.75c7.916,-6.25 12.916,-10.834 10.416,-10.834c-2.083,0.417 -78.333,20.834 -168.75,45.834Z" style="fill:#fff;fill-rule:nonzero;"/><path d="M1770.42,596.953c-0,52.083 3.333,50 -88.75,51.666l-77.5,1.25l-5.834,17.5c-3.333,9.584 -22.083,63.75 -41.666,120.834l-35.834,102.916l19.584,10c65.833,33.75 146.25,100 188.75,156.667c40.416,53.333 71.25,124.167 87.916,201.25c12.5,57.5 13.75,205 2.084,263.333c-34.167,172.917 -113.75,294.584 -253.334,387.917c-119.583,80 -274.166,123.75 -457.916,130.417l-77.084,2.5l134.167,67.916c73.75,37.5 135.833,68.334 137.5,68.334c1.667,0.416 20.417,-32.084 40.833,-72.084c30.834,-59.166 39.167,-72.5 45.834,-71.666c4.583,0.416 99.583,10.416 211.25,22.916c111.666,12.084 204.166,20.417 205.833,18.75c2.083,-1.666 11.25,-75.833 21.25,-164.166c10,-89.167 20,-162.5 22.5,-163.75c2.083,-1.667 22.917,-5.417 45.833,-8.334c22.917,-2.916 42.5,-6.666 43.334,-8.333c0.833,-1.667 -21.25,-162.917 -49.584,-357.917l-51.25,-355l66.25,-192.083c36.25,-105.833 64.584,-193.333 62.917,-195.417c-2.917,-2.5 -45.833,-17.916 -162.5,-57.916l-34.583,-12.084l-0,34.584Z" style="fill:#fff;fill-rule:nonzero;"/><path d="M167.5,1004.45l-167.5,259.166l51.667,33.75c28.75,18.334 54.583,35 57.916,37.5c5.417,3.75 1.25,23.75 -27.083,139.167c-18.333,74.167 -32.917,135.417 -32.083,135.833c0.833,0.417 67.916,17.084 149.166,37.084c81.25,20 152.084,37.083 157.084,38.333c9.166,2.5 8.75,1.25 -5,-29.167c-31.667,-68.333 -51.667,-147.5 -60.417,-237.5c-5.833,-57.916 -3.333,-83.75 8.333,-90c5.417,-2.916 86.25,-4.166 232.084,-4.166l224.166,0.416l76.25,-72.083c100.417,-94.583 92.917,-85 70.834,-90.833c-332.084,-84.167 -487.5,-190.417 -555.417,-380l-12.917,-36.667l-167.083,259.167Z" style="fill:#fff;fill-rule:nonzero;"/></g></svg>